# AST/ASF file generated using VICON BodyLanguage
# -----------------------------------------------
:version 1.10
:name VICON
:units
  mass 1.0
  length 0.45
  angle deg
:documentation
   .ast/.asf automatically generated from VICON data using
   VICON BodyBuilder and BodyLanguage model FoxedUp or BRILLIANT.MOD
:root
   order TX TY TZ RX RY RZ
   axis XYZ
   position 0 0 0  
   orientation 0 0 0 
:bonedata
  begin
     id 1 
     name lhipjoint
     direction 0.541323 -0.757556 0.364798 
     length 2.47576 
     axis 0 0 0  XYZ
  end
  begin
     id 2 
     name lfemur
     direction 0.34202 -0.939693 0  
     length 7.46493  
     axis 0 0 20  XYZ
    dof rx ry rz
    limits (-160.0 20.0)
           (-70.0 70.0)
           (-60.0 70.0)
  end
  begin
     id 3 
     name ltibia
     direction 0.34202 -0.939693 0   
     length 7.73805   
     axis 0 0 20   XYZ
    dof rx
    limits (-10.0 170.0)
  end
  begin
     id 4 
     name lfoot
     direction 0.107174 -0.294458 0.949636   
     length 2.25864   
     axis -90 7.62852e-016 20   XYZ
    dof rx rz
    limits (-45.0 90.0)
           (-70.0 20.0)
  end
  begin
     id 5 
     name ltoes
     direction 1.53606e-011 -4.21934e-011 1   
     length 1.12451   
     axis -90 7.62852e-016 20   XYZ
    dof rx
    limits (-90.0 20.0)
  end
  begin
     id 6 
     name rhipjoint
     direction -0.524745 -0.766967 0.36933   
     length 2.44538  
     axis 0 0 0  XYZ 
  end
  begin
     id 7 
     name rfemur
     direction -0.34202 -0.939693 0   
     length 7.61604   
     axis 0 0 -20   XYZ
    dof rx ry rz
    limits (-160.0 20.0)
           (-70.0 70.0)
           (-70.0 60.0)
  end
  begin
     id 8 
     name rtibia
     direction -0.34202 -0.939693 0   
     length 7.61056   
     axis 0 0 -20   XYZ
    dof rx
    limits (-10.0 170.0)
 end
 begin
     id 9 
     name rfoot
     direction -0.12616 -0.346623 0.929482   
     length 2.46372  
     axis -90 -7.62852e-016 -20   XYZ
    dof rx rz
    limits (-45.0 90.0)
           (-20.0 70.0)
  end
  begin
     id 10 
     name rtoes
     direction -1.53531e-011 -4.22004e-011 1   
     length 1.21611   
     axis -90 -7.62852e-016 -20   XYZ
    dof rx
    limits (-90.0 20.0)
  end
  begin
     id 11 
     name lowerback
     direction -0.000778023 0.997293 -0.0735223   
     length 2.06139   
     axis 0 0 0   XYZ
    dof rx ry rz
    limits (-20.0 45.0)
           (-30.0 30.0)
           (-30.0 30.0)
  end
  begin
     id 12 
     name upperback
     direction 0.0222598 0.999722 -0.0078355   
     length 2.06383   
     axis 0 0 0   XYZ
    dof rx ry rz
    limits (-20.0 45.0)
           (-30.0 30.0)
           (-30.0 30.0)
  end
  begin
     id 13 
     name thorax
     direction 0.0219654 0.999405 0.0265994   
     length 2.07163   
     axis 0 0 0   XYZ
    dof rx ry rz
    limits (-20.0 45.0)
           (-30.0 30.0)
           (-30.0 30.0)
  end
  begin
     id 14 
     name lowerneck
     direction 0.0213282 0.988147 0.15202   
     length 1.75969   
     axis 0 0 0   XYZ
    dof rx ry rz
    limits (-20.0 45.0)
           (-30.0 30.0)
           (-30.0 30.0)
  end
  begin
     id 15 
     name upperneck
     direction -0.0546456 0.982624 -0.177379   
     length 1.79244   
     axis 0 0 0   XYZ
    dof rx ry rz
    limits (-20.0 45.0)
           (-30.0 30.0)
           (-30.0 30.0)
  end
  begin
     id 16
     name head
     direction -0.0199987 0.996855 -0.076686  
     length 1.80555  
     axis 0 0 0   XYZ
    dof rx ry rz
    limits (-20.0 45.0)
           (-30.0 30.0)
           (-30.0 30.0)
  end
  begin
     id 17 
     name lclavicle
     direction 0.929565 0.363219 -0.063096  
     length 3.55722  
     axis 0 0 0   XYZ
    dof ry rz
    limits (-20.0 10.0)
           (0.0 20.0)
  end
  begin
     id 18 
     name lhumerus
     direction 1 -4.48993e-011 -2.36203e-027   
     length 4.92785   
     axis 180 -30 -90   XYZ
    dof rx ry rz
    limits (-60.0 90.0)
           (-90.0 90.0)
           (-90.0 90.0)
  end
  begin
     id 19
     name lradius
     direction 1 -4.48947e-011 2.02997e-027   
     length 3.44052   
     axis 180 -30 -90   XYZ
    dof rx
    limits (-10.0 170.0)
  end
  begin
     id 20
     name lwrist
     direction 1 -4.48962e-011 1.45991e-027   
     length 1.72026   
     axis 1.49639e-024 90 90   XYZ
    dof ry
    limits (-180.0 0.0)
 end
  begin
     id 21 
     name lhand
     direction 1 -4.48984e-011 2.91906e-027   
     length 0.654326   
     axis -1.863e-015 90 90   XYZ
    dof rx rz
    limits (-90.0 90.0)
           (-45.0 45.0)
  end
  begin
     id 22 
     name lfingers
     direction 1 -4.48961e-011 5.83968e-027   
     length 0.527534   
     axis -3.72598e-015 90 90   XYZ
    dof rx
    limits (0.0 90.0)
  end
  begin
     id 23
     name lthumb
     direction 0.707107 -6.34963e-011 0.707107   
     length 0.757437   
     axis -90 45 -6.68868e-015   XYZ
    dof rx rz
    limits (-45.0 45.0)
           (-45.0 45.0)
  end
  begin
     id 24 
     name rclavicle
     direction -0.902944 0.422599 -0.0781198   
     length 3.54432  
     axis 0 0 0   XYZ 
    dof ry rz
    limits (-10.0 20.0)
           (-20.0 0.0)
  end
  begin
     id 25 
     name rhumerus
     direction -1 -4.48953e-011 -4.75835e-028  
     length 5.09181   
     axis 180 30 90   XYZ
    dof rx ry rz
    limits (-90.0 60.0)
           (-90.0 90.0)
           (-90.0 90.0)
  end
  begin
     id 26 
     name rradius
     direction -1 -4.48986e-011 -3.25889e-027   
     length 3.49865   
     axis 180 30 90   XYZ
    dof rx
    limits (-10.0 170.0)
  end
  begin
     id 27 
     name rwrist
     direction -1 -4.48963e-011 1.45989e-027   
     length 1.74933   
     axis 1.49639e-024 -90 -90   XYZ
    dof ry
    limits (-180.0 0.0)
  end
  begin
     id 28
     name rhand
     direction -1 -4.49003e-011 2.91844e-027   
     length 0.66641   
     axis -1.863e-015 -90 -90   XYZ
    dof rx rz
    limits (-90.0 90.0)
           (-45.0 45.0)
  end
  begin
     id 29
     name rfingers
     direction -1 -4.48973e-011 5.83886e-027   
     length 0.537277   
     axis -3.72598e-015 -90 -90   XYZ
    dof rx
    limits (0.0 90.0)
  end
  begin
     id 30
     name rthumb
     direction -0.707107 -6.34976e-011 0.707107   
     length 0.771425   
     axis -90 -45 6.68868e-015   XYZ
    dof rx rz
    limits (-45.0 45.0)
           (-45.0 45.0)
  end
:hierarchy
  begin
    root lhipjoint rhipjoint lowerback
    lhipjoint lfemur
    lfemur ltibia
    ltibia lfoot
    lfoot ltoes
    rhipjoint rfemur
    rfemur rtibia
    rtibia rfoot
    rfoot rtoes
    lowerback upperback
    upperback thorax
    thorax lowerneck lclavicle rclavicle
    lowerneck upperneck
    upperneck head
    lclavicle lhumerus
    lhumerus lradius
    lradius lwrist
    lwrist lhand lthumb
    lhand lfingers
    rclavicle rhumerus
    rhumerus rradius
    rradius rwrist
    rwrist rhand rthumb
    rhand rfingers
  end

#!OML:ASF H:\LiuWeirdWalks\Patient Classification 1\Patient 1\Session 1\male.ASF
:FULLY-SPECIFIED
:DEGREES
37
root -0.394081 17.9236 -30.1775 2.2807 10.8559 -1.70746
lowerback 2.14153 -2.46436 -1.10547
upperback 1.99057 -3.33063 5.24875
thorax 1.23072 -1.72859 6.08607
lowerneck -21.3335 0.8691 3.15002
upperneck 37.8642 3.84987 -9.02588
head 17.987 0.716443 -3.94854
rclavicle -4.49253e-014 3.97569e-014
rhumerus -14.7288 -31.9281 -14.5631
rradius 24.1487
rwrist 3.49203
rhand -21.9065 -0.730983
rfingers 7.12502
rthumb 4.49909 -30.6632
lclavicle -4.49253e-014 3.97569e-014
lhumerus -23.8193 25.256 26.8777
lradius 27.4749
lwrist 0.440926
lhand -16.2533 2.69011
lfingers 7.12502
lthumb 9.95575 32.4347
rfemur -5.07815 -1.46179 17.2939
rtibia 26.8462
rfoot -12.7875 -26.2492
rtoes -4.68221
lfemur -7.37117 -3.17496 -13.9959
ltibia 24.6854
lfoot -11.5232 11.6517
ltoes -11.0645
38
root -0.401465 17.9231 -30.1786 2.28632 10.8083 -1.71045
lowerback 2.13685 -2.47484 -1.091
upperback 2.03039 -3.34593 5.22576
thorax 1.27389 -1.73726 6.05229
lowerneck -21.202 0.880306 3.23972
upperneck 38.1119 3.82256 -8.96426
head 18.0894 0.730709 -3.95694
rclavicle -3.39922e-014 2.70347e-014
rhumerus -14.7057 -32.0653 -14.5747
rradius 24.1177
rwrist 3.65582
rhand -21.8925 -0.693177
rfingers 7.12502
rthumb 4.51257 -30.6251
lclavicle -3.39922e-014 2.70347e-014
lhumerus -23.6489 25.2925 26.9169
lradius 27.3766
lwrist 0.278047
lhand -16.1782 2.70039
lfingers 7.12502
lthumb 10.0282 32.4415
rfemur -5.12348 -1.45133 17.3186
rtibia 26.8881
rfoot -12.7927 -26.2278
rtoes -4.70058
lfemur -7.37387 -3.17071 -13.9704
ltibia 24.6844
lfoot -11.5188 11.6925
ltoes -11.0651
39
root -0.408774 17.9227 -30.1798 2.28888 10.7561 -1.72003
lowerback 2.14796 -2.49565 -1.06703
upperback 2.07208 -3.37477 5.21566
thorax 1.31195 -1.75266 6.02746
lowerneck -21.1022 0.897433 3.27556
upperneck 38.3584 3.8174 -8.88018
head 18.2014 0.748405 -3.94058
rclavicle 6.95746e-015 2.22639e-014
rhumerus -14.6298 -32.1912 -14.6099
rradius 24.093
rwrist 3.78556
rhand -21.9023 -0.658524
rfingers 7.12502
rthumb 4.50308 -30.5907
lclavicle 6.95746e-015 2.22639e-014
lhumerus -23.529 25.3841 26.9309
lradius 27.2773
lwrist 0.137865
lhand -16.1185 2.71582
lfingers 7.12502
lthumb 10.0859 32.4541
rfemur -5.16746 -1.44607 17.3481
rtibia 26.9279
rfoot -12.7935 -26.1988
rtoes -4.73218
lfemur -7.37537 -3.16796 -13.939
ltibia 24.6869
lfoot -11.5142 11.7381
ltoes -11.0672
40
root -0.416141 17.9223 -30.1814 2.29074 10.7071 -1.73101
lowerback 2.17081 -2.51563 -1.04104
upperback 2.11343 -3.40225 5.20933
thorax 1.34302 -1.76723 6.00605
lowerneck -21.0222 0.906907 3.28739
upperneck 38.594 3.80745 -8.79194
head 18.3121 0.760826 -3.91825
rclavicle 1.90833e-014 -1.90833e-014
rhumerus -14.5706 -32.2304 -14.6345
rradius 24.0968
rwrist 3.81308
rhand -21.9443 -0.647074
rfingers 7.12502
rthumb 4.46256 -30.5801
lclavicle 1.90833e-014 -1.90833e-014
lhumerus -23.415 25.485 26.9444
lradius 27.1792
lwrist 0.0144519
lhand -16.0902 2.73091
lfingers 7.12502
lthumb 10.1132 32.4679
rfemur -5.21186 -1.44891 17.3786
rtibia 26.9669
rfoot -12.7899 -26.1607
rtoes -4.7572
lfemur -7.37958 -3.16626 -13.9056
ltibia 24.6904
lfoot -11.5032 11.7814
ltoes -11.0789
41
root -0.423611 17.9221 -30.1834 2.29694 10.6617 -1.73953
lowerback 2.20385 -2.53002 -1.01455
upperback 2.14806 -3.42172 5.19917
thorax 1.3602 -1.77735 5.981
lowerneck -20.9399 0.897517 3.27724
upperneck 38.8193 3.77251 -8.69487
head 18.4137 0.761234 -3.89192
rclavicle 2.96189e-014 2.22639e-014
rhumerus -14.553 -32.2203 -14.6349
rradius 24.1205
rwrist 3.78012
rhand -21.9817 -0.625906
rfingers 7.12502
rthumb 4.42649 -30.5596
lclavicle 2.96189e-014 2.22639e-014
lhumerus -23.2898 25.5896 26.9593
lradius 27.0842
lwrist -0.0952059
lhand -16.1103 2.75963
lfingers 7.12502
lthumb 10.0937 32.4975
rfemur -5.26048 -1.46061 17.4059
rtibia 27.0055
rfoot -12.7905 -26.113
rtoes -4.76998
lfemur -7.3904 -3.15825 -13.8734
ltibia 24.6931
lfoot -11.4878 11.8148
ltoes -11.0954
